<svg id="Layer_1" data-name="Layer 1" xmlns="http://www.w3.org/2000/svg" xmlns:xlink="http://www.w3.org/1999/xlink" viewBox="0 0 1108.55 690.08"><defs><style>.cls-1{fill:#f5334d;}.cls-1,.cls-2{stroke:#333;stroke-width:2px;}.cls-1,.cls-2,.cls-3{stroke-miterlimit:10;}.cls-2{fill:#00708a;}.cls-3{opacity:0.13;stroke:url(#linear-gradient);}.cls-4{font-size:99.76px;font-family:PoiretOne-Regular, Poiret One;letter-spacing:0.2em;}</style><linearGradient id="linear-gradient" x1="112.29" y1="495.3" x2="567.68" y2="495.3" gradientUnits="userSpaceOnUse"><stop offset="0" stop-color="#fff"/><stop offset="1"/></linearGradient></defs><title>SocaSosaLogo</title><path class="cls-1" d="M445.09,707.79S596.67,742.43,689,715.25s126.24-67.78,118.79-114.7c-5.9-37.14-33-64.25-44.08-73.94a88.51,88.51,0,0,1-20.26-25.5C730,475.37,720.54,428.77,776.54,373c0,0,36.49-38.36,97.57-66.29,0,0-46.93-29-56.24-26.44,0,0-75.22,34.26-116.18,58.47,0,0-48.41,25.69-58.1,66.66s2.61,81.18,19.74,103.9c0,0,6,59.21-24.2,97.56s-89,55.46-101.33,54.34C537.8,661.22,476.37,694,445.09,707.79Z" transform="translate(-241.89 -247.88)"/><path class="cls-2" d="M806.5,274.11c-95.35-32.8-169.76-24.34-172.65-24h-.18c-36.57-.33-140,24.27-191.32,91.24s13.35,156.84,32,175c15.06,14.66,49.15,53.25,4.46,95.7-38.64,36.72-106.42,60.65-124,66.44a1.63,1.63,0,0,0-.08,3.06c25.13,9.62,74.86,21.43,80.42,22.74a1.68,1.68,0,0,0,1-.09C485.32,683.76,528,658,529.45,657.15l.09,0c40.11-20.44,54.85-51.23,55.42-52.45l0-.08c31.37-56-8.73-115.14-12.09-119.93a1.6,1.6,0,0,1-.28-.69c-4.2-26.88,6.6-65.14,7.11-67,0,0,0-.09,0-.13,27.67-73.18,112.72-83.42,118.8-84.06,31.19-18.47,93.31-47.7,108.81-54.95C808.73,277.23,807.89,274.59,806.5,274.11Z" transform="translate(-241.89 -247.88)"/><ellipse class="cls-3" cx="339.98" cy="495.3" rx="227.19" ry="9.41"/><text class="cls-4" transform="translate(0 669.33)">SOCASOSA</text></svg>